<svg width="2600" height="60" viewBox="0 0 2600 60" fill="none" xmlns="http://www.w3.org/2000/svg">
    <g clip-path="url(#clip0_18_894)">
        <rect width="2600" height="60" fill="#1C1D20" />
        <rect x="-366.307" y="197.553" width="500" height="25"
            transform="rotate(-45 -366.307 197.553)"
            fill="#FFD600" />
        <rect x="-294.076" y="197.553" width="500" height="25"
            transform="rotate(-45 -294.076 197.553)"
            fill="#FFD600" />
        <rect x="-221.845" y="197.553" width="500" height="25"
            transform="rotate(-45 -221.845 197.553)"
            fill="#FFD600" />
        <rect x="-149.614" y="197.553" width="500" height="25"
            transform="rotate(-45 -149.614 197.553)"
            fill="#FFD600" />
        <rect x="-77.3828" y="197.553" width="500" height="25"
            transform="rotate(-45 -77.3828 197.553)"
            fill="#FFD600" />
        <rect x="-5.15186" y="197.553" width="500" height="25"
            transform="rotate(-45 -5.15186 197.553)"
            fill="#FFD600" />
        <rect x="67.0793" y="197.553" width="500" height="25"
            transform="rotate(-45 67.0793 197.553)"
            fill="#FFD600" />
        <rect x="139.31" y="197.553" width="500" height="25" transform="rotate(-45 139.31 197.553)"
            fill="#FFD600" />
        <rect x="211.541" y="197.553" width="500" height="25"
            transform="rotate(-45 211.541 197.553)"
            fill="#FFD600" />
        <rect x="283.772" y="197.553" width="500" height="25"
            transform="rotate(-45 283.772 197.553)"
            fill="#FFD600" />
        <rect x="356.003" y="197.553" width="500" height="25"
            transform="rotate(-45 356.003 197.553)"
            fill="#FFD600" />
        <rect x="428.234" y="197.553" width="500" height="25"
            transform="rotate(-45 428.234 197.553)"
            fill="#FFD600" />
        <rect x="500.465" y="197.553" width="500" height="25"
            transform="rotate(-45 500.465 197.553)"
            fill="#FFD600" />
        <rect x="572.696" y="197.553" width="500" height="25"
            transform="rotate(-45 572.696 197.553)"
            fill="#FFD600" />
        <rect x="644.927" y="197.553" width="500" height="25"
            transform="rotate(-45 644.927 197.553)"
            fill="#FFD600" />
        <rect x="717.158" y="197.553" width="500" height="25"
            transform="rotate(-45 717.158 197.553)"
            fill="#FFD600" />
        <rect x="789.389" y="197.553" width="500" height="25"
            transform="rotate(-45 789.389 197.553)"
            fill="#FFD600" />
        <rect x="861.62" y="197.553" width="500" height="25" transform="rotate(-45 861.62 197.553)"
            fill="#FFD600" />
        <rect x="933.851" y="197.553" width="500" height="25"
            transform="rotate(-45 933.851 197.553)"
            fill="#FFD600" />
        <rect x="1006.08" y="197.553" width="500" height="25"
            transform="rotate(-45 1006.08 197.553)"
            fill="#FFD600" />
        <rect x="1078.31" y="197.553" width="500" height="25"
            transform="rotate(-45 1078.31 197.553)"
            fill="#FFD600" />
        <path d="M1150.54 197.553L1504.1 -156L1521.77 -138.322L1168.22 215.231L1150.54 197.553Z"
            fill="#FFD600" />
        <rect x="1222.77" y="197.553" width="500" height="25"
            transform="rotate(-45 1222.77 197.553)"
            fill="#FFD600" />
        <rect x="1295.01" y="197.553" width="500" height="25"
            transform="rotate(-45 1295.01 197.553)"
            fill="#FFD600" />
        <rect x="1367.24" y="197.553" width="500" height="25"
            transform="rotate(-45 1367.24 197.553)"
            fill="#FFD600" />
        <rect x="1439.47" y="197.553" width="500" height="25"
            transform="rotate(-45 1439.47 197.553)"
            fill="#FFD600" />
        <rect x="1511.7" y="197.553" width="500" height="25" transform="rotate(-45 1511.7 197.553)"
            fill="#FFD600" />
        <rect x="1583.93" y="197.553" width="500" height="25"
            transform="rotate(-45 1583.93 197.553)"
            fill="#FFD600" />
        <rect x="1656.16" y="197.553" width="500" height="25"
            transform="rotate(-45 1656.16 197.553)"
            fill="#FFD600" />
        <rect x="1728.39" y="197.553" width="500" height="25"
            transform="rotate(-45 1728.39 197.553)"
            fill="#FFD600" />
        <rect x="1800.62" y="197.553" width="500" height="25"
            transform="rotate(-45 1800.62 197.553)"
            fill="#FFD600" />
        <rect x="1872.85" y="197.553" width="500" height="25"
            transform="rotate(-45 1872.85 197.553)"
            fill="#FFD600" />
        <rect x="1945.08" y="197.553" width="500" height="25"
            transform="rotate(-45 1945.08 197.553)"
            fill="#FFD600" />
        <rect x="2017.32" y="197.553" width="500" height="25"
            transform="rotate(-45 2017.32 197.553)"
            fill="#FFD600" />
        <rect x="2089.55" y="197.553" width="500" height="25"
            transform="rotate(-45 2089.55 197.553)"
            fill="#FFD600" />
        <rect x="2161.78" y="197.553" width="500" height="25"
            transform="rotate(-45 2161.78 197.553)"
            fill="#FFD600" />
        <rect x="2234.01" y="197.553" width="500" height="25"
            transform="rotate(-45 2234.01 197.553)"
            fill="#FFD600" />
        <rect x="2306.24" y="197.553" width="500" height="25"
            transform="rotate(-45 2306.24 197.553)"
            fill="#FFD600" />
        <rect x="2378.47" y="197.553" width="500" height="25"
            transform="rotate(-45 2378.47 197.553)"
            fill="#FFD600" />
        <rect x="2450.7" y="197.553" width="500" height="25" transform="rotate(-45 2450.7 197.553)"
            fill="#FFD600" />
        <rect x="2522.93" y="197.553" width="500" height="25"
            transform="rotate(-45 2522.93 197.553)"
            fill="#FFD600" />
        <rect x="2595.16" y="197.553" width="500" height="25"
            transform="rotate(-45 2595.16 197.553)"
            fill="#FFD600" />
    </g>
    <defs>
        <clipPath id="clip0_18_894">
            <rect width="2600" height="60" fill="white" />
        </clipPath>
    </defs>
</svg>